<?xml version="1.0" standalone="no"?>
<!DOCTYPE svg PUBLIC "-//W3C//DTD SVG 20010904//EN"
 "http://www.w3.org/TR/2001/REC-SVG-20010904/DTD/svg10.dtd">
<svg version="1.0" xmlns="http://www.w3.org/2000/svg"
 width="351.000000pt" height="249.000000pt" viewBox="0 0 351.000000 249.000000"
 preserveAspectRatio="xMidYMid meet">

<g transform="translate(0.000000,249.000000) scale(0.100000,-0.100000)"
fill="#000000" stroke="none">
<path d="M285 1960 c3 -8 41 -105 84 -215 l79 -200 531 -3 c292 -1 531 -4 531
-6 0 -2 -7 -20 -15 -40 l-15 -36 -371 0 c-204 0 -369 -4 -367 -8 2 -5 39 -102
82 -215 l80 -207 203 0 c112 0 203 -2 203 -5 0 -3 -7 -21 -14 -40 l-15 -35
-172 0 c-159 0 -171 -1 -165 -17 4 -10 42 -107 84 -215 l77 -198 781 0 781 0
82 209 c44 115 81 212 81 215 0 3 -223 6 -495 6 -275 0 -495 4 -495 9 0 5 41
114 91 242 50 129 100 258 111 287 l19 52 225 0 c123 0 224 -1 224 -2 0 -2
-22 -59 -49 -128 l-49 -125 271 -3 c149 -1 274 1 278 5 3 5 57 139 119 298 62
160 121 311 131 337 l19 48 -1475 2 c-1307 3 -1474 1 -1470 -12z"/>
</g>
</svg>
